<svg xmlns="http://www.w3.org/2000/svg" xmlns:xlink="http://www.w3.org/1999/xlink" viewBox="0 0 534.97 449.48"><defs><style>.cls-1{fill:#124e8a;}.cls-2{fill:#0167bb;}.cls-3{fill:#008fd4;}.cls-4{fill:#c09367;}.cls-5{fill:#d8ab85;}.cls-6{fill:#cda37e;}.cls-7{fill:#212c48;}.cls-8{fill:#9e7954;}.cls-9{fill:url(#linear-gradient);}.cls-10{fill:#7d6141;}.cls-11{fill:#91755a;}.cls-12{fill:#e5c6b3;}.cls-13{fill:#b38a60;}.cls-14{fill:#c49c79;}.cls-15,.cls-17{fill:none;stroke-miterlimit:10;}.cls-15{stroke:#91755a;stroke-linecap:round;stroke-width:1.96px;}.cls-16{fill:#a78c7f;}.cls-17{stroke:#705f56;stroke-width:0.52px;}.cls-18{fill:#0c61aa;fill-rule:evenodd;}.cls-19{font-size:30px;fill:#fff;font-family:AvenirNextLTPro-Demi, Avenir Next LT Pro;}.cls-20{letter-spacing:-0.06em;}.cls-21{letter-spacing:-0.02em;}</style><linearGradient id="linear-gradient" x1="325.18" y1="267.67" x2="480.1" y2="267.67" gradientUnits="userSpaceOnUse"><stop offset="0" stop-color="#d8ab85"/><stop offset="0.9" stop-color="#c09367"/></linearGradient></defs><title>Domestic Transport-boxes</title><g id="SVG"><polygon class="cls-1" points="335.53 372.04 396.44 419.25 396.44 431 335.78 380.61 335.53 372.04"/><polygon class="cls-2" points="474.48 373.51 474.48 383.54 396.44 431 396.44 419.25 474.48 373.51"/><polygon class="cls-3" points="335.53 372.04 348.01 366.91 433.62 364.7 474.48 373.51 396.44 419.25 335.53 372.04"/><polygon class="cls-1" points="438.76 402.38 403.54 424.64 403.29 417.79 438.52 396.99 438.76 402.38"/><polygon class="cls-1" points="469.91 384.33 443.16 401.15 442.92 394.3 469.67 378.94 469.91 384.33"/><polygon class="cls-4" points="396.93 415.1 340.18 372.37 325.18 265.71 392.37 277.13 396.93 415.1"/><polygon class="cls-5" points="396.93 415.1 470.97 373.02 480.1 266.69 392.37 277.13 396.93 415.1"/><polygon class="cls-6" points="325.18 265.71 403.13 258.21 480.1 266.69 392.37 277.13 325.18 265.71"/><polygon class="cls-7" points="438.76 399.31 403.54 421.57 403.29 417.69 438.52 396.9 438.76 399.31"/><polygon class="cls-7" points="469.91 381.26 443.16 398.08 442.92 394.21 469.67 378.85 469.91 381.26"/><polygon class="cls-8" points="403.13 258.21 325.18 265.71 392.37 277.13 403.13 275.85 403.13 258.21"/><path class="cls-9" d="M403.12,259.69l64.09,7.06-74.8,8.9-56.09-9.53,66.81-6.43m0-1.48-78,7.5,67.19,11.42,87.74-10.44-77-8.48Z"/><polygon class="cls-10" points="326.48 276.4 393.34 293.36 392.37 272.16 323.55 261.07 326.48 276.4"/><polygon class="cls-11" points="479.45 276.72 480.75 262.7 392.37 272.16 393.34 293.36 479.45 276.72"/><polygon class="cls-12" points="323.58 260.33 402.8 252.51 480.45 262.08 392.04 271.42 323.58 260.33"/><polygon class="cls-13" points="326.48 275.66 393.34 292.62 392.37 271.42 323.55 260.33 326.48 275.66"/><polygon class="cls-14" points="479.45 275.99 480.75 261.96 392.37 271.42 393.34 292.62 479.45 275.99"/><polyline class="cls-15" points="417.48 409.71 416.26 268.32 346.38 258.05"/><polyline class="cls-15" points="452.7 388.43 455.88 264.17 382.5 254.38"/><polyline class="cls-15" points="355.83 388.84 347.36 264.9 427.26 254.38"/></g><g id="Layer_7" data-name="Layer 7"><polygon class="cls-12" points="284.14 71.56 326.73 104.13 389.86 77.33 337.33 58.23 284.14 71.56"/><polygon class="cls-5" points="327.28 171.69 389.37 143.27 389.87 77.36 326.44 103.07 327.28 171.69"/><polygon class="cls-4" points="284.17 71.53 285.65 137.92 327.33 172.12 326.41 103.09 284.17 71.53"/><polygon class="cls-16" points="301.25 150.74 301.09 84.55 354.76 64.79 364.86 68.32 309.46 90.21 309.64 157.59 301.25 150.74"/><line class="cls-17" x1="357.55" y1="67.55" x2="305.25" y2="87.01"/><polygon class="cls-12" points="384.95 111.16 427.53 143.72 490.67 116.92 438.13 97.83 384.95 111.16"/><polygon class="cls-5" points="428.09 179.18 490.17 150.77 490.67 116.95 427.24 142.66 428.09 179.18"/><polygon class="cls-4" points="384.97 111.12 386.46 145.41 428.14 179.62 427.22 142.68 384.97 111.12"/><polygon class="cls-16" points="402.12 158.25 401.89 124.14 455.56 104.38 465.67 107.91 410.26 129.8 410.45 165.12 402.12 158.25"/><line class="cls-17" x1="458.35" y1="107.14" x2="406.06" y2="126.6"/><polygon class="cls-12" points="302.43 34.79 345.02 67.36 408.15 40.56 355.62 21.46 302.43 34.79"/><polygon class="cls-5" points="345.57 102.81 407.66 74.4 408.16 40.59 344.73 66.3 345.57 102.81"/><polygon class="cls-4" points="302.46 34.76 303.94 69.05 345.62 103.25 344.7 66.32 302.46 34.76"/><polygon class="cls-16" points="319.53 81.48 319.38 47.78 373.26 27.84 383.15 31.55 327.75 53.44 327.94 88.19 319.53 81.48"/><line class="cls-17" x1="377.84" y1="29.7" x2="323.55" y2="50.24"/><polygon class="cls-12" points="400.9 42.9 443.49 75.46 506.62 48.67 454.09 29.57 400.9 42.9"/><polygon class="cls-5" points="444.05 143.02 506.13 114.61 506.63 48.7 443.2 74.41 444.05 143.02"/><polygon class="cls-4" points="400.93 42.87 402.42 109.26 444.09 143.46 443.17 74.43 400.93 42.87"/><polygon class="cls-16" points="417.94 122.19 417.89 55.51 471.73 35.98 481.71 39.63 426.03 61.62 426.35 128.9 417.94 122.19"/><line class="cls-17" x1="475.87" y1="37.54" x2="422.02" y2="58.35"/></g><g id="Palletised_btn" data-name="Palletised btn"><path class="cls-18" d="M42,280.43l103.08,3.67,60.21,1.57c13,.39,11.81-.48,17.64.79s12.36,3.19,17.33,6.82,11.15,6.08,12.47,15-1.42,29.42-4.56,38.3-5.83,12.37-14.29,15-36.49.52-36.49.52l-94.57-1c-24-.22-35.43,1.7-49.56-.26s-21-8.13-26.15-16.26S23,320.09,22.57,311.91s1.62-15.74,4.87-21,7.4-9.57,14.6-10.49Z"/><text class="cls-19" transform="translate(70.69 331.05)"><tspan class="cls-20">P</tspan><tspan x="16.62" y="0">alletised</tspan></text></g><g id="Loose_btn" data-name="Loose btn"><path class="cls-18" d="M40.06,84.85l103.08,3.67,60.21,1.57c13,.39,11.81-.48,17.64.79s12.36,3.19,17.33,6.82,11.15,6.08,12.47,15-1.42,29.42-4.56,38.3-5.83,12.37-14.29,15-36.49.52-36.49.52l-94.57-1c-24-.22-35.43,1.7-49.56-.26s-21-8.13-26.15-16.26S21,124.51,20.6,116.33s1.62-15.74,4.87-21,7.4-9.57,14.6-10.49Z"/><text class="cls-19" transform="translate(57.72 136.33)"><tspan class="cls-21">L</tspan><tspan x="14.79" y="0">oose items</tspan></text></g></svg>